<svg viewBox="0 0 1920 1080" xmlns="http://www.w3.org/2000/svg" font-family="sans-serif">
    <!-- PlayingScreen 游戏进行中界面主组件 -->
    <defs>
        <filter id="shadow" x="-20%" y="-20%" width="140%" height="140%">
            <feDropShadow dx="0" dy="2" stdDeviation="3" flood-color="#000" flood-opacity="0.15"/>
        </filter>
    </defs>
    
    <!-- 背景 -->
    <rect width="1920" height="1080" fill="#f5f5f5"/>
    
    <!-- 左上角状态区域 -->
    <g id="player-status-area">
        <!-- 区域占位框 -->
        <rect x="40" y="40" width="400" height="360" fill="#E9E9E9" stroke="#CCC" stroke-width="2" stroke-dasharray="10,10" rx="16"/>
        <text x="240" y="220" font-size="24" fill="#999" text-anchor="middle">PlayerStatusPanel</text>
        
        <!-- 内容示意 -->
        <g opacity="0.6">
            <!-- HP条 -->
            <rect x="80" y="64" width="320" height="48" rx="8" fill="#FFF" stroke="#888" stroke-width="3"/>
            <rect x="83" y="67" width="224" height="42" rx="5" fill="#E53935"/>
            
            <!-- LV条 -->
            <rect x="80" y="128" width="320" height="48" rx="8" fill="#FFF" stroke="#888" stroke-width="3"/>
            <rect x="83" y="131" width="288" height="42" rx="5" fill="#4CAF50"/>
            
            <!-- 资源 -->
            <circle cx="104" cy="248" r="24" fill="#FFD700"/>
            <circle cx="104" cy="328" r="24" fill="#8BC34A"/>
        </g>
    </g>
    
    <!-- 顶部中央波次信息区域 -->
    <g id="wave-info-area">
        <!-- 区域占位框 -->
        <rect x="760" y="40" width="400" height="160" fill="#E9E9E9" stroke="#CCC" stroke-width="2" stroke-dasharray="10,10" rx="16"/>
        <text x="960" y="120" font-size="24" fill="#999" text-anchor="middle">WaveInfoPanel</text>
        
        <!-- 内容示意 -->
        <g opacity="0.6">
            <text x="960" y="96" font-size="38" text-anchor="middle" fill="#555" font-weight="bold">WAVE 99</text>
            <text x="960" y="152" font-size="38" text-anchor="middle" fill="#777">77</text>
        </g>
    </g>
    
    <!-- 右上角通知区域 -->
    <g id="notification-area">
        <!-- 区域占位框 -->
        <rect x="1480" y="40" width="400" height="200" fill="#E9E9E9" stroke="#CCC" stroke-width="2" stroke-dasharray="10,10" rx="16"/>
        <text x="1680" y="140" font-size="24" fill="#999" text-anchor="middle">NotificationPanel</text>
        
        <!-- 内容示意 -->
        <g opacity="0.6">
            <!-- 升级箭头 -->
            <path d="M 1624 80 L 1648 112 L 1635 112 L 1635 144 L 1613 144 L 1613 112 L 1600 112 Z" fill="#4CAF50"/>
            <path d="M 1704 80 L 1728 112 L 1715 112 L 1715 144 L 1693 144 L 1693 112 L 1680 112 Z" fill="#4CAF50"/>
            
            <!-- 宝箱 -->
            <rect x="1640" y="180" width="64" height="48" rx="8" fill="#FFC107" opacity="0.8"/>
            <rect x="1736" y="180" width="64" height="48" rx="8" fill="#FFC107" opacity="0.8"/>
        </g>
    </g>
    
    <!-- 战斗场景区域 -->
    <g id="battle-scene-area">
        <!-- 区域占位框 -->
        <rect x="0" y="280" width="1920" height="800" fill="#E0E0E0" stroke="#999" stroke-width="3"/>
        <text x="960" y="680" font-size="64" fill="#888" text-anchor="middle">BattleScene</text>
        <text x="960" y="740" font-size="32" fill="#AAA" text-anchor="middle">(3D ViewportFrame)</text>
    </g>
    
    <!-- 布局指示线 -->
    <g id="layout-guides" opacity="0.3">
        <!-- 垂直分割线 -->
        <line x1="480" y1="0" x2="480" y2="280" stroke="#FF0000" stroke-width="1" stroke-dasharray="5,5"/>
        <line x1="1440" y1="0" x2="1440" y2="280" stroke="#FF0000" stroke-width="1" stroke-dasharray="5,5"/>
        
        <!-- 水平分割线 -->
        <line x1="0" y1="280" x2="1920" y2="280" stroke="#0000FF" stroke-width="2" stroke-dasharray="5,5"/>
        
        <!-- 中心线 -->
        <line x1="960" y1="0" x2="960" y2="280" stroke="#00FF00" stroke-width="1" stroke-dasharray="5,5"/>
    </g>
    
    <!-- 组件标注 -->
    <g id="component-labels" font-size="14" fill="#666">
        <text x="10" y="20">PlayingScreen (1920 x 1080)</text>
        <text x="10" y="270">UI层 (280px高)</text>
        <text x="10" y="1070">战斗场景层 (800px高)</text>
        
        <!-- 区域尺寸标注 -->
        <text x="50" y="415" font-size="12" fill="#888">400 x 360</text>
        <text x="770" y="215" font-size="12" fill="#888">400 x 160</text>
        <text x="1490" y="255" font-size="12" fill="#888">400 x 200</text>
    </g>
</svg>